<?xml version="1.0" encoding="utf-8"?>
<!-- Generator: Adobe Illustrator 18.0.0, SVG Export Plug-In . SVG Version: 6.00 Build 0)  -->
<!DOCTYPE svg PUBLIC "-//W3C//DTD SVG 1.1//EN" "http://www.w3.org/Graphics/SVG/1.1/DTD/svg11.dtd">
<svg version="1.1" xmlns="http://www.w3.org/2000/svg" xmlns:xlink="http://www.w3.org/1999/xlink" x="0px" y="0px"
	 viewBox="0 0 292.5 410.2" enable-background="new 0 0 292.5 410.2" xml:space="preserve">
<g id="Layer_1">
</g>
<g id="Layer_2">
	<g>
		<path fill="#51B6AC" d="M216.9,167.2c-27-43.3-70.6-113.3-70.6-113.3S68.5,177.4,52.9,203.7s-29.3,82.8,18.8,131.3
			c0,0,17-8.8,26.5-24.2s13.8-34,19-55.5s13.2-39.5,18.8-42.5c0,0-6.7-21.2,1.7-26.7c0,0,3.8,3.2,9.8,9.5c6,6.3,7.8,5.2,9.2,4.2
			s-0.3-8.7-7-20.8c-6.3-11.6-18.2-24.6-38.8-24.8c-1.1,0-4.8,0.4-6.7,0.7c-3.1,0.5-7.4,1.1-9.2,0.4c-2.8-1.2,8.7-8.5,32-9.2
			c0,0-2.8-3.5-22.5-0.3c0,0-5.5-2.5,10.3-7.5c15.8-5,35.7,1.3,44.7,9.8c0,0,1.5,1.5,2.7,2.2s4.2,2.2,4.5,4.7s1.7,5.2,3.8,5.8
			c2.2,0.7,4.2,1,3.8,5.3c-0.3,4.3,4,2.3,6.7,5.8c2.7,3.5,1.2,7.2,4.7,10.5c3.5,3.3,4,5.7,4.8,9.3c0.8,3.7,7.3-1.5,8.5,10.8
			c1.2,12.3,8.3,25,16.3,34.7s17.8,15.3,20,20.7c2.2,5.3,2.5,10.5-1.2,16.5c0,0-0.5,5-5,7.7c-4.5,2.7-12,1.7-15.7,0.8
			c-3.7-0.8-9.5,1.3-17.5,0.5c-8-0.8-8.5-3.2-16.2-3.7c-7.7-0.5-4.7,16.5-3.5,29.3c1.2,12.8,5.5,37,13.7,47.2c0,0,61.7-25.5,64-96
			C254,222.9,243.9,210.4,216.9,167.2z"/>
		<path fill="#51B6AC" d="M197,231.2c-4-3.7-7.2-8.1-9.4-8.2s-9.3,3.7-9.3,3.7c1.3,1.1,6.4,5.9,8.8,5.8
			C190.6,232.8,197,231.2,197,231.2z"/>
	</g>
</g>
</svg>
